Coordinates
version=1
nRows=16
nColumns=40
inDegrees=yes

Units are S.I. units (second, meters, Newtons, ...)
Angles are in degrees.

endheader
time	pelvis_tilt	pelvis_list	pelvis_rotation	pelvis_tx	pelvis_ty	pelvis_tz	hip_flexion_r	hip_adduction_r	hip_rotation_r	knee_angle_r	knee_angle_r_beta	ankle_angle_r	subtalar_angle_r	mtp_angle_r	hip_flexion_l	hip_adduction_l	hip_rotation_l	knee_angle_l	knee_angle_l_beta	ankle_angle_l	subtalar_angle_l	mtp_angle_l	lumbar_extension	lumbar_bending	lumbar_rotation	arm_flex_r	arm_add_r	arm_rot_r	elbow_flex_r	pro_sup_r	wrist_flex_r	wrist_dev_r	arm_flex_l	arm_add_l	arm_rot_l	elbow_flex_l	pro_sup_l	wrist_flex_l	wrist_dev_l
     21.74000000	     -5.93933110	     -4.21103389	     -1.91997912	      1.02822957	      0.91686273	      0.54465196	     18.98253301	      4.94421372	     -8.16580025	     26.81649928	     26.81649928	     14.58001313	     -7.92743425	     -2.06108332	     26.34854035	    -12.49788713	      1.35962348	     67.46778365	     67.46778365	      8.57180911	    -19.16774147	     14.75053090	    -11.13906979	      6.41540066	      0.75042089	      3.82291344	    -17.96294761	    -12.60807724	     43.32303173	     45.75355052	      0.00000000	      0.00000000	     15.13052049	    -11.74414301	     -1.26685986	     39.47958294	     45.80850283	      0.00000000	      0.00000000
     21.75921429	     -5.67083783	     -4.25255451	     -1.32052211	      1.02705680	      0.91556083	      0.54594228	     18.74299851	      5.13557489	     -7.87646219	     27.48464696	     27.48464696	     15.03131805	     -9.46822157	     -1.69555090	     27.75903943	    -12.48843086	      1.80683988	     68.65562774	     68.65562774	      9.89814036	    -19.21065157	     17.11431388	    -11.28584577	      6.20736059	      0.72481851	      5.82391625	    -17.95629510	    -12.78114105	     43.69717918	     45.76156916	      0.00000000	      0.00000000	     13.99455779	    -11.00734444	     -0.76525911	     35.64305230	     45.77260080	      0.00000000	      0.00000000
     21.77842857	     -5.46249860	     -4.31971060	     -0.75941062	      1.02581675	      0.91388995	      0.54724484	     18.71331426	      5.23182807	     -7.97685147	     28.47837362	     28.47837362	     15.61677943	    -10.35231343	     -1.78121601	     29.16519252	    -12.66804688	      2.01309535	     69.52631091	     69.52631091	     10.51288708	    -19.29247387	     17.33577286	    -11.41559878	      6.06302178	      0.44539442	      7.69301502	    -17.80452835	    -12.98746076	     45.20608986	     45.72583244	      0.00000000	      0.00000000	     11.77827976	    -10.69237063	     -0.48892056	     33.85466971	     45.71598312	      0.00000000	      0.00000000
     21.79764286	     -5.22039670	     -4.41352964	     -0.19866863	      1.02460964	      0.91250564	      0.54842877	     18.51741833	      5.39214877	     -8.02290165	     29.23137259	     29.23137259	     16.18513597	    -11.24202189	     -1.63037960	     30.44306121	    -12.90708764	      2.13779901	     69.98100843	     69.98100843	     11.28980303	    -19.36368113	     18.10643394	    -11.57740053	      5.96539305	      0.16525848	      9.59862755	    -17.64640783	    -13.15482419	     46.96347269	     45.67935253	      0.00000000	      0.00000000	      9.69054631	    -10.36784136	     -0.12043769	     31.76762616	     45.65138259	      0.00000000	      0.00000000
     21.81685714	     -5.03154182	     -4.50254203	      0.37701847	      1.02334227	      0.91143064	      0.54936919	     18.26812863	      5.52836468	     -8.15612153	     29.76469987	     29.76469987	     16.70756452	    -11.93739195	     -1.38895299	     31.63988621	    -13.17069692	      2.15577967	     69.87076938	     69.87076938	     12.09991820	    -19.42484280	     19.06265024	    -11.72566308	      5.87353274	      0.05594596	     11.38269248	    -17.52320620	    -13.30202192	     48.75482479	     45.63049288	      0.00000000	      0.00000000	      7.75298767	    -10.00116010	      0.27782661	     29.83024230	     45.58183373	      0.00000000	      0.00000000
     21.83607143	     -4.89469569	     -4.57194921	      0.93391775	      1.02200595	      0.91072180	      0.54999716	     17.97673565	      5.62429674	     -8.34468467	     30.12591995	     30.12591995	     17.39574757	    -12.30414709	     -0.46550721	     32.75101581	    -13.38930845	      2.10439101	     69.20714499	     69.20714499	     13.28608913	    -19.46473732	     21.23285918	    -11.82614738	      5.78885841	      0.52373886	     12.48442900	    -17.74928109	    -13.52068694	     51.50360854	     45.55122202	      0.00000000	      0.00000000	      6.38817509	     -9.49820748	      1.26160689	     27.47957397	     45.46550164	      0.00000000	      0.00000000
     21.85528571	     -4.85336024	     -4.60756122	      1.48692758	      1.02061893	      0.91041502	      0.55030583	     17.60535443	      5.65742763	     -8.61004918	     30.10686480	     30.10686480	     17.70802635	    -12.58330558	     -0.46711001	     33.68197873	    -13.65547176	      1.80103626	     67.73963685	     67.73963685	     13.71517476	    -19.50659691	     21.32064055	    -11.79933959	      5.64540272	      1.10475767	     14.07068433	    -18.08229621	    -13.71841795	     52.48179895	     45.53388880	      0.00000000	      0.00000000	      4.67606162	     -9.02916438	      1.40546353	     26.74300322	     45.41639912	      0.00000000	      0.00000000
     21.87450000	     -4.81772864	     -4.64793499	      2.12939000	      1.01911556	      0.91075573	      0.55015153	     17.06884786	      5.69061930	     -8.91092110	     29.72535167	     29.72535167	     17.84810049	    -12.85488399	     -0.23072416	     34.39378147	    -13.78007657	      1.56400911	     65.55666479	     65.55666479	     14.17823121	    -19.53020935	     21.64651904	    -11.84928387	      5.62025770	      0.33178934	     16.33995631	    -17.34387012	    -13.95869675	     55.07767480	     45.46308069	      0.00000000	      0.00000000	      2.45547895	     -8.93634597	      1.78433860	     25.63234556	     45.32295311	      0.00000000	      0.00000000
     21.89371429	     -4.97119029	     -4.60378693	      2.76266772	      1.01738529	      0.91127441	      0.54951997	     16.67460665	      5.56341288	     -9.32320328	     29.21953388	     29.21953388	     17.99463321	    -12.85106732	      0.03377986	     35.07703626	    -13.69189142	      1.27064553	     62.75399205	     62.75399205	     14.43987535	    -19.53284890	     21.76105400	    -11.75578408	      5.51804777	      0.54924686	     17.46304107	    -17.38817604	    -14.26982888	     58.77065835	     45.35996849	      0.00000000	      0.00000000	      0.40754637	     -8.82191247	      2.82533278	     26.06633231	     45.11815777	      0.00000000	      0.00000000
     21.91292857	     -5.15085542	     -4.55394845	      3.40038724	      1.01551299	      0.91234850	      0.54849327	     16.12587578	      5.41929961	     -9.78292128	     28.34662193	     28.34662193	     17.96277009	    -12.68028685	      0.14928982	     35.51408030	    -13.43803029	      1.02844676	     59.31132088	     59.31132088	     14.39164337	    -19.50159911	     21.60538701	    -11.62811505	      5.42225215	      0.50325517	     19.31973598	    -17.21509775	    -14.45722972	     61.14907718	     45.29804946	      0.00000000	      0.00000000	     -1.35264523	     -8.62198534	      3.44733205	     25.82637328	     44.98819673	      0.00000000	      0.00000000
     21.93214286	     -5.61121778	     -4.37519616	      4.03439937	      1.01331910	      0.91334486	      0.54692772	     15.87227746	      5.10182445	    -10.15627383	     27.43951299	     27.43951299	     17.87613563	    -12.63199163	      0.32802667	     36.04863809	    -12.79497174	      0.92377000	     55.45656637	     55.45656637	     14.19478562	    -19.42989306	     21.83581465	    -11.14709821	      5.14262415	      1.03759057	     21.09964610	    -17.66981151	    -14.62427332	     62.47042182	     45.26888429	      0.00000000	      0.00000000	     -2.62667338	     -8.25072927	      3.62286103	     25.58924993	     44.93634266	      0.00000000	      0.00000000
     21.95135714	     -5.77750437	     -4.23217706	      4.69413935	      1.01127820	      0.91506787	      0.54510187	     15.06455724	      4.76083437	    -10.94567647	     26.12785371	     26.12785371	     17.53947292	    -11.87681585	     -0.21669102	     35.79768707	    -12.11266127	      0.87246976	     50.80992347	     50.80992347	     12.61262724	    -19.33534656	     18.33752272	    -11.30278893	      5.04988603	      1.02747072	     21.84330574	    -17.55242076	    -14.62401472	     68.57793277	     45.08727033	      0.00000000	      0.00000000	     -5.01977494	     -8.63620950	      5.65202151	     28.06619274	     44.55990943	      0.00000000	      0.00000000
     21.97057143	     -6.15190532	     -4.05088818	      5.35151738	      1.00896418	      0.91655243	      0.54282456	     14.51692952	      4.36181549	    -11.65782614	     24.87461062	     24.87461062	     17.32520054	    -11.23055335	     -0.28190279	     35.72003352	    -11.12506267	      1.21488695	     46.17654881	     46.17654881	     11.61131958	    -19.08508994	     17.45697898	    -11.08591094	      4.88583840	      0.79165750	     23.91266904	    -17.26467021	    -14.67102811	     71.45560020	     45.01152673	      0.00000000	      0.00000000	     -6.51625866	     -8.52643581	      6.64352143	     28.19910677	     44.39510805	      0.00000000	      0.00000000
     21.98978571	     -6.81729013	     -3.88150555	      5.91009762	      1.00630459	      0.91747356	      0.54037806	     14.43474251	      3.98687591	    -12.07237194	     23.84984624	     23.84984624	     17.08960997	    -11.03519976	     -0.11564222	     35.88632040	    -10.09114949	      1.68465523	     41.62113861	     41.62113861	     10.91254301	    -18.33360527	     17.66787674	    -10.51415598	      4.64517770	      1.23845563	     25.88236679	    -17.73453507	    -14.77072994	     72.99614916	     44.97500169	      0.00000000	      0.00000000	     -7.46737770	     -8.23449121	      6.88589573	     28.21292552	     44.34495458	      0.00000000	      0.00000000
     22.00900000	     -6.99430548	     -3.72708257	      6.49076759	      1.00427073	      0.91883869	      0.53781689	     13.54147517	      3.61838575	    -12.96563246	     22.39071211	     22.39071211	     16.54549774	    -10.04218936	     -1.51079362	     34.91671367	     -9.23619580	      1.98012146	     36.18535830	     36.18535830	      7.07699347	    -17.91699324	      9.80615811	    -10.68638321	      4.52038033	      1.82933021	     26.39113327	    -18.11446619	    -14.87248931	     79.36472917	     44.93913029	      0.00000000	      0.00000000	     -9.31680095	     -9.80942543	     15.11180437	     31.70695906	     43.55466530	      0.00000000	      0.00000000
     22.02821429	     -7.40624763	     -3.66078757	      6.99076731	      1.00199611	      0.91953036	      0.53512953	     13.12757304	      3.32019380	    -13.70267193	     21.34541638	     21.34541638	     16.44536331	     -9.18159350	     -1.65150776	     34.55670576	     -8.46865069	      2.37522740	     31.77779447	     31.77779447	      6.01792115	    -16.20376771	      8.80883924	    -10.51392043	      4.41376162	      1.94035672	     28.12650890	    -18.23424837	    -14.56970609	     82.86261821	     44.84813390	      0.00000000	      0.00000000	    -10.50990195	     -9.71110482	     15.19409854	     32.61229666	     43.61403529	      0.00000000	      0.00000000
